<mxfile host="Electron" agent="Mozilla/5.0 (Windows NT 10.0; Win64; x64) AppleWebKit/537.36 (KHTML, like Gecko) draw.io/26.2.2 Chrome/134.0.6998.178 Electron/35.1.2 Safari/537.36" version="26.2.2">
  <diagram name="Whispers of Wisdom Flowchart" id="aHCzKMfT_MRhcJItYHlm">
    <mxGraphModel dx="2672" dy="754" grid="1" gridSize="10" guides="1" tooltips="1" connect="1" arrows="1" fold="1" page="1" pageScale="1" pageWidth="850" pageHeight="1100" math="0" shadow="0">
      <root>
        <mxCell id="0" />
        <mxCell id="1" parent="0" />
        <mxCell id="lZy-3CFGb0z1ACgUJduD-27" style="edgeStyle=orthogonalEdgeStyle;rounded=0;orthogonalLoop=1;jettySize=auto;html=1;exitX=0.5;exitY=1;exitDx=0;exitDy=0;entryX=0.5;entryY=0;entryDx=0;entryDy=0;" parent="1" source="lZy-3CFGb0z1ACgUJduD-1" target="lZy-3CFGb0z1ACgUJduD-26" edge="1">
          <mxGeometry relative="1" as="geometry" />
        </mxCell>
        <mxCell id="lZy-3CFGb0z1ACgUJduD-1" value="&lt;b&gt;start&lt;/b&gt;&lt;div&gt;&lt;br&gt;&lt;div&gt;welcome&lt;/div&gt;&lt;/div&gt;" style="shape=rectangle;whiteSpace=wrap;html=1;rounded=1;" parent="1" vertex="1">
          <mxGeometry x="340" y="20" width="160" height="60" as="geometry" />
        </mxCell>
        <mxCell id="lZy-3CFGb0z1ACgUJduD-40" style="edgeStyle=orthogonalEdgeStyle;rounded=0;orthogonalLoop=1;jettySize=auto;html=1;exitX=0;exitY=0.5;exitDx=0;exitDy=0;entryX=0.5;entryY=0;entryDx=0;entryDy=0;" parent="1" source="lZy-3CFGb0z1ACgUJduD-2" target="lZy-3CFGb0z1ACgUJduD-3" edge="1">
          <mxGeometry relative="1" as="geometry" />
        </mxCell>
        <mxCell id="lZy-3CFGb0z1ACgUJduD-41" style="edgeStyle=orthogonalEdgeStyle;rounded=0;orthogonalLoop=1;jettySize=auto;html=1;exitX=1;exitY=0.5;exitDx=0;exitDy=0;entryX=0.5;entryY=0;entryDx=0;entryDy=0;" parent="1" source="lZy-3CFGb0z1ACgUJduD-2" target="lZy-3CFGb0z1ACgUJduD-4" edge="1">
          <mxGeometry relative="1" as="geometry" />
        </mxCell>
        <mxCell id="lZy-3CFGb0z1ACgUJduD-2" value="&lt;b&gt;hide_in_trees&lt;/b&gt;" style="shape=rectangle;whiteSpace=wrap;html=1;rounded=1;" parent="1" vertex="1">
          <mxGeometry x="20" y="160" width="160" height="60" as="geometry" />
        </mxCell>
        <mxCell id="lZy-3CFGb0z1ACgUJduD-42" style="edgeStyle=orthogonalEdgeStyle;rounded=0;orthogonalLoop=1;jettySize=auto;html=1;exitX=0;exitY=0.5;exitDx=0;exitDy=0;entryX=0.5;entryY=0;entryDx=0;entryDy=0;" parent="1" source="lZy-3CFGb0z1ACgUJduD-3" target="lZy-3CFGb0z1ACgUJduD-5" edge="1">
          <mxGeometry relative="1" as="geometry" />
        </mxCell>
        <mxCell id="lZy-3CFGb0z1ACgUJduD-43" style="edgeStyle=orthogonalEdgeStyle;rounded=0;orthogonalLoop=1;jettySize=auto;html=1;exitX=1;exitY=0.5;exitDx=0;exitDy=0;entryX=0.5;entryY=0;entryDx=0;entryDy=0;" parent="1" source="lZy-3CFGb0z1ACgUJduD-3" target="lZy-3CFGb0z1ACgUJduD-39" edge="1">
          <mxGeometry relative="1" as="geometry" />
        </mxCell>
        <mxCell id="lZy-3CFGb0z1ACgUJduD-3" value="&lt;b&gt;left_cave_fall_check&lt;/b&gt;&lt;div&gt;&lt;b&gt;&lt;br&gt;&lt;/b&gt;&lt;/div&gt;&lt;div&gt;1, 2, 3 = fall_find_shard&lt;/div&gt;&lt;div&gt;4, 5, 6 = soft_landing&lt;/div&gt;" style="shape=rectangle;whiteSpace=wrap;html=1;rounded=1;" parent="1" vertex="1">
          <mxGeometry x="-160" y="250" width="160" height="60" as="geometry" />
        </mxCell>
        <mxCell id="lZy-3CFGb0z1ACgUJduD-94" style="edgeStyle=orthogonalEdgeStyle;rounded=0;orthogonalLoop=1;jettySize=auto;html=1;exitX=0.5;exitY=1;exitDx=0;exitDy=0;entryX=0.5;entryY=0;entryDx=0;entryDy=0;" parent="1" source="lZy-3CFGb0z1ACgUJduD-4" target="lZy-3CFGb0z1ACgUJduD-93" edge="1">
          <mxGeometry relative="1" as="geometry" />
        </mxCell>
        <mxCell id="lZy-3CFGb0z1ACgUJduD-4" value="right_cave" style="shape=rectangle;whiteSpace=wrap;html=1;rounded=1;fontStyle=1" parent="1" vertex="1">
          <mxGeometry x="200" y="260" width="160" height="60" as="geometry" />
        </mxCell>
        <mxCell id="lZy-3CFGb0z1ACgUJduD-48" style="edgeStyle=orthogonalEdgeStyle;rounded=0;orthogonalLoop=1;jettySize=auto;html=1;exitX=0.5;exitY=1;exitDx=0;exitDy=0;entryX=0.5;entryY=0;entryDx=0;entryDy=0;" parent="1" source="lZy-3CFGb0z1ACgUJduD-5" target="lZy-3CFGb0z1ACgUJduD-6" edge="1">
          <mxGeometry relative="1" as="geometry" />
        </mxCell>
        <mxCell id="lZy-3CFGb0z1ACgUJduD-5" value="fall_find_shard&lt;div&gt;&lt;br&gt;&lt;/div&gt;&lt;div&gt;&lt;span style=&quot;font-weight: 400;&quot;&gt;Item - Echo shard&lt;/span&gt;&lt;/div&gt;" style="shape=rectangle;whiteSpace=wrap;html=1;rounded=1;fontStyle=1" parent="1" vertex="1">
          <mxGeometry x="-280" y="350" width="160" height="60" as="geometry" />
        </mxCell>
        <mxCell id="lZy-3CFGb0z1ACgUJduD-6" value="wizard_rescue" style="shape=rectangle;whiteSpace=wrap;html=1;rounded=1;fontStyle=1" parent="1" vertex="1">
          <mxGeometry x="-280" y="430" width="160" height="60" as="geometry" />
        </mxCell>
        <mxCell id="lZy-3CFGb0z1ACgUJduD-60" style="edgeStyle=orthogonalEdgeStyle;rounded=0;orthogonalLoop=1;jettySize=auto;html=1;exitX=0;exitY=0.5;exitDx=0;exitDy=0;entryX=0.5;entryY=0;entryDx=0;entryDy=0;" parent="1" source="lZy-3CFGb0z1ACgUJduD-7" target="lZy-3CFGb0z1ACgUJduD-55" edge="1">
          <mxGeometry relative="1" as="geometry" />
        </mxCell>
        <mxCell id="lZy-3CFGb0z1ACgUJduD-61" style="edgeStyle=orthogonalEdgeStyle;rounded=0;orthogonalLoop=1;jettySize=auto;html=1;exitX=1;exitY=0.5;exitDx=0;exitDy=0;entryX=0.5;entryY=0;entryDx=0;entryDy=0;" parent="1" source="lZy-3CFGb0z1ACgUJduD-7" target="lZy-3CFGb0z1ACgUJduD-54" edge="1">
          <mxGeometry relative="1" as="geometry" />
        </mxCell>
        <mxCell id="lZy-3CFGb0z1ACgUJduD-7" value="riddle_1" style="shape=rectangle;whiteSpace=wrap;html=1;rounded=1;fontStyle=1" parent="1" vertex="1">
          <mxGeometry x="-140" y="690" width="160" height="60" as="geometry" />
        </mxCell>
        <mxCell id="lZy-3CFGb0z1ACgUJduD-63" style="edgeStyle=orthogonalEdgeStyle;rounded=0;orthogonalLoop=1;jettySize=auto;html=1;exitX=0;exitY=0.5;exitDx=0;exitDy=0;entryX=0.75;entryY=0;entryDx=0;entryDy=0;" parent="1" source="lZy-3CFGb0z1ACgUJduD-8" target="lZy-3CFGb0z1ACgUJduD-55" edge="1">
          <mxGeometry relative="1" as="geometry" />
        </mxCell>
        <mxCell id="lZy-3CFGb0z1ACgUJduD-64" style="edgeStyle=orthogonalEdgeStyle;rounded=0;orthogonalLoop=1;jettySize=auto;html=1;exitX=0.5;exitY=1;exitDx=0;exitDy=0;" parent="1" source="lZy-3CFGb0z1ACgUJduD-8" edge="1">
          <mxGeometry relative="1" as="geometry">
            <mxPoint x="-159.66666666666652" y="930.3333333333333" as="targetPoint" />
          </mxGeometry>
        </mxCell>
        <mxCell id="lZy-3CFGb0z1ACgUJduD-65" style="edgeStyle=orthogonalEdgeStyle;rounded=0;orthogonalLoop=1;jettySize=auto;html=1;exitX=1;exitY=0.5;exitDx=0;exitDy=0;entryX=0.5;entryY=0;entryDx=0;entryDy=0;" parent="1" source="lZy-3CFGb0z1ACgUJduD-8" target="lZy-3CFGb0z1ACgUJduD-62" edge="1">
          <mxGeometry relative="1" as="geometry" />
        </mxCell>
        <mxCell id="lZy-3CFGb0z1ACgUJduD-8" value="riddle_2" style="shape=rectangle;whiteSpace=wrap;html=1;rounded=1;fontStyle=1" parent="1" vertex="1">
          <mxGeometry x="-240" y="870" width="160" height="60" as="geometry" />
        </mxCell>
        <mxCell id="lZy-3CFGb0z1ACgUJduD-9" value="Symbol Puzzle + Memory stone" style="shape=rectangle;whiteSpace=wrap;html=1;rounded=1;fontStyle=1" parent="1" vertex="1">
          <mxGeometry x="-440" y="1390" width="160" height="60" as="geometry" />
        </mxCell>
        <mxCell id="lZy-3CFGb0z1ACgUJduD-10" value="Lost Empire â†’ Amos Portal" style="shape=rectangle;whiteSpace=wrap;html=1;rounded=1;fontStyle=1" parent="1" vertex="1">
          <mxGeometry x="-440" y="1280" width="160" height="60" as="geometry" />
        </mxCell>
        <mxCell id="lZy-3CFGb0z1ACgUJduD-11" value="Back to castle" style="shape=rectangle;whiteSpace=wrap;html=1;rounded=1;fontStyle=1" parent="1" vertex="1">
          <mxGeometry x="-440" y="1520" width="160" height="60" as="geometry" />
        </mxCell>
        <mxCell id="lZy-3CFGb0z1ACgUJduD-72" style="edgeStyle=orthogonalEdgeStyle;rounded=0;orthogonalLoop=1;jettySize=auto;html=1;exitX=0;exitY=0.5;exitDx=0;exitDy=0;entryX=0.5;entryY=0;entryDx=0;entryDy=0;" parent="1" source="lZy-3CFGb0z1ACgUJduD-12" target="lZy-3CFGb0z1ACgUJduD-14" edge="1">
          <mxGeometry relative="1" as="geometry" />
        </mxCell>
        <mxCell id="lZy-3CFGb0z1ACgUJduD-12" value="&lt;b&gt;run_to_castle&lt;/b&gt;&lt;div&gt;&lt;b&gt;&lt;br&gt;&lt;/b&gt;&lt;/div&gt;&lt;div&gt;castle guards&lt;/div&gt;" style="shape=rectangle;whiteSpace=wrap;html=1;rounded=1;" parent="1" vertex="1">
          <mxGeometry x="700" y="160" width="160" height="60" as="geometry" />
        </mxCell>
        <mxCell id="lZy-3CFGb0z1ACgUJduD-92" style="edgeStyle=orthogonalEdgeStyle;rounded=0;orthogonalLoop=1;jettySize=auto;html=1;exitX=0.5;exitY=1;exitDx=0;exitDy=0;entryX=0.5;entryY=0;entryDx=0;entryDy=0;" parent="1" source="lZy-3CFGb0z1ACgUJduD-14" target="lZy-3CFGb0z1ACgUJduD-15" edge="1">
          <mxGeometry relative="1" as="geometry" />
        </mxCell>
        <mxCell id="lZy-3CFGb0z1ACgUJduD-14" value="traveling_salesman" style="shape=rectangle;whiteSpace=wrap;html=1;rounded=1;fontStyle=1" parent="1" vertex="1">
          <mxGeometry x="600" y="260" width="160" height="60" as="geometry" />
        </mxCell>
        <mxCell id="lZy-3CFGb0z1ACgUJduD-77" style="edgeStyle=orthogonalEdgeStyle;rounded=0;orthogonalLoop=1;jettySize=auto;html=1;exitX=0;exitY=0.5;exitDx=0;exitDy=0;entryX=0.5;entryY=0;entryDx=0;entryDy=0;" parent="1" source="lZy-3CFGb0z1ACgUJduD-15" target="lZy-3CFGb0z1ACgUJduD-74" edge="1">
          <mxGeometry relative="1" as="geometry" />
        </mxCell>
        <mxCell id="lZy-3CFGb0z1ACgUJduD-78" style="edgeStyle=orthogonalEdgeStyle;rounded=0;orthogonalLoop=1;jettySize=auto;html=1;exitX=1;exitY=0.5;exitDx=0;exitDy=0;entryX=0.5;entryY=0;entryDx=0;entryDy=0;" parent="1" source="lZy-3CFGb0z1ACgUJduD-15" target="lZy-3CFGb0z1ACgUJduD-75" edge="1">
          <mxGeometry relative="1" as="geometry" />
        </mxCell>
        <mxCell id="lZy-3CFGb0z1ACgUJduD-79" style="edgeStyle=orthogonalEdgeStyle;rounded=0;orthogonalLoop=1;jettySize=auto;html=1;exitX=0.5;exitY=1;exitDx=0;exitDy=0;entryX=0.5;entryY=0;entryDx=0;entryDy=0;" parent="1" source="lZy-3CFGb0z1ACgUJduD-15" target="lZy-3CFGb0z1ACgUJduD-16" edge="1">
          <mxGeometry relative="1" as="geometry" />
        </mxCell>
        <mxCell id="lZy-3CFGb0z1ACgUJduD-15" value="bandit _encounter&lt;div&gt;&lt;br&gt;&lt;/div&gt;&lt;div&gt;&lt;span style=&quot;font-weight: normal;&quot;&gt;fight/flee/bargain&lt;/span&gt;&lt;/div&gt;" style="shape=rectangle;whiteSpace=wrap;html=1;rounded=1;fontStyle=1" parent="1" vertex="1">
          <mxGeometry x="600" y="360" width="160" height="60" as="geometry" />
        </mxCell>
        <mxCell id="lZy-3CFGb0z1ACgUJduD-16" value="bargain_bandits" style="shape=rectangle;whiteSpace=wrap;html=1;rounded=1;fontStyle=1" parent="1" vertex="1">
          <mxGeometry x="600" y="460" width="160" height="60" as="geometry" />
        </mxCell>
        <mxCell id="lZy-3CFGb0z1ACgUJduD-81" style="edgeStyle=orthogonalEdgeStyle;rounded=0;orthogonalLoop=1;jettySize=auto;html=1;exitX=1;exitY=0.5;exitDx=0;exitDy=0;entryX=0.5;entryY=0;entryDx=0;entryDy=0;" parent="1" source="lZy-3CFGb0z1ACgUJduD-17" target="lZy-3CFGb0z1ACgUJduD-80" edge="1">
          <mxGeometry relative="1" as="geometry" />
        </mxCell>
        <mxCell id="lZy-3CFGb0z1ACgUJduD-82" style="edgeStyle=orthogonalEdgeStyle;rounded=0;orthogonalLoop=1;jettySize=auto;html=1;exitX=0;exitY=0.5;exitDx=0;exitDy=0;entryX=0.5;entryY=0;entryDx=0;entryDy=0;" parent="1" source="lZy-3CFGb0z1ACgUJduD-17" target="lZy-3CFGb0z1ACgUJduD-18" edge="1">
          <mxGeometry relative="1" as="geometry" />
        </mxCell>
        <mxCell id="lZy-3CFGb0z1ACgUJduD-17" value="enlist_troll_war" style="shape=rectangle;whiteSpace=wrap;html=1;rounded=1;fontStyle=1" parent="1" vertex="1">
          <mxGeometry x="1120" y="230" width="160" height="60" as="geometry" />
        </mxCell>
        <mxCell id="lZy-3CFGb0z1ACgUJduD-18" value="sleep_tavern" style="shape=rectangle;whiteSpace=wrap;html=1;rounded=1;fontStyle=1" parent="1" vertex="1">
          <mxGeometry x="1000" y="330" width="160" height="60" as="geometry" />
        </mxCell>
        <mxCell id="lZy-3CFGb0z1ACgUJduD-19" value="Bow Training + Connection Token" style="shape=rectangle;whiteSpace=wrap;html=1;rounded=1;fontStyle=1" parent="1" vertex="1">
          <mxGeometry x="1090" y="490" width="160" height="60" as="geometry" />
        </mxCell>
        <mxCell id="lZy-3CFGb0z1ACgUJduD-20" value="Troll Battle (Dice Roll)" style="shape=rectangle;whiteSpace=wrap;html=1;rounded=1;fontStyle=1" parent="1" vertex="1">
          <mxGeometry x="1110" y="680" width="160" height="60" as="geometry" />
        </mxCell>
        <mxCell id="lZy-3CFGb0z1ACgUJduD-21" value="Healer Tent Game" style="shape=rectangle;whiteSpace=wrap;html=1;rounded=1;fontStyle=1" parent="1" vertex="1">
          <mxGeometry x="1240" y="780" width="160" height="60" as="geometry" />
        </mxCell>
        <mxCell id="lZy-3CFGb0z1ACgUJduD-22" value="Cloak Chase + Adaptability Token" style="shape=rectangle;whiteSpace=wrap;html=1;rounded=1;fontStyle=1" parent="1" vertex="1">
          <mxGeometry x="900" y="870" width="160" height="60" as="geometry" />
        </mxCell>
        <mxCell id="lZy-3CFGb0z1ACgUJduD-23" value="Sir Wyndemis Appears" style="shape=rectangle;whiteSpace=wrap;html=1;rounded=1;fontStyle=1" parent="1" vertex="1">
          <mxGeometry x="880" y="780" width="160" height="60" as="geometry" />
        </mxCell>
        <mxCell id="lZy-3CFGb0z1ACgUJduD-24" value="Solstice Party + Perception Token" style="shape=rectangle;whiteSpace=wrap;html=1;rounded=1;fontStyle=1" parent="1" vertex="1">
          <mxGeometry x="1130" y="1130" width="160" height="60" as="geometry" />
        </mxCell>
        <mxCell id="lZy-3CFGb0z1ACgUJduD-25" value="Wisdom Tree Finale" style="shape=rectangle;whiteSpace=wrap;html=1;rounded=1;fontStyle=1" parent="1" vertex="1">
          <mxGeometry x="1150" y="1230" width="160" height="60" as="geometry" />
        </mxCell>
        <mxCell id="lZy-3CFGb0z1ACgUJduD-28" style="edgeStyle=orthogonalEdgeStyle;rounded=0;orthogonalLoop=1;jettySize=auto;html=1;exitX=1;exitY=0.5;exitDx=0;exitDy=0;entryX=0.5;entryY=0;entryDx=0;entryDy=0;" parent="1" source="lZy-3CFGb0z1ACgUJduD-26" target="lZy-3CFGb0z1ACgUJduD-12" edge="1">
          <mxGeometry relative="1" as="geometry" />
        </mxCell>
        <mxCell id="lZy-3CFGb0z1ACgUJduD-29" style="edgeStyle=orthogonalEdgeStyle;rounded=0;orthogonalLoop=1;jettySize=auto;html=1;exitX=0;exitY=0.5;exitDx=0;exitDy=0;entryX=0.5;entryY=0;entryDx=0;entryDy=0;" parent="1" source="lZy-3CFGb0z1ACgUJduD-26" target="lZy-3CFGb0z1ACgUJduD-2" edge="1">
          <mxGeometry relative="1" as="geometry" />
        </mxCell>
        <mxCell id="lZy-3CFGb0z1ACgUJduD-26" value="&lt;b&gt;scene1&lt;/b&gt;&lt;div&gt;&lt;br&gt;&lt;div&gt;goblins approach&lt;/div&gt;&lt;/div&gt;" style="shape=rectangle;whiteSpace=wrap;html=1;rounded=1;" parent="1" vertex="1">
          <mxGeometry x="340" y="100" width="160" height="60" as="geometry" />
        </mxCell>
        <mxCell id="lZy-3CFGb0z1ACgUJduD-47" style="edgeStyle=orthogonalEdgeStyle;rounded=0;orthogonalLoop=1;jettySize=auto;html=1;exitX=0.5;exitY=1;exitDx=0;exitDy=0;entryX=0.5;entryY=0;entryDx=0;entryDy=0;" parent="1" source="lZy-3CFGb0z1ACgUJduD-39" target="lZy-3CFGb0z1ACgUJduD-44" edge="1">
          <mxGeometry relative="1" as="geometry" />
        </mxCell>
        <mxCell id="lZy-3CFGb0z1ACgUJduD-39" value="soft_landing&lt;div&gt;&lt;br&gt;&lt;/div&gt;&lt;div&gt;&lt;span style=&quot;font-weight: 400;&quot;&gt;Item - Echo shard&lt;/span&gt;&lt;/div&gt;" style="shape=rectangle;whiteSpace=wrap;html=1;rounded=1;fontStyle=1" parent="1" vertex="1">
          <mxGeometry x="-40" y="350" width="160" height="60" as="geometry" />
        </mxCell>
        <mxCell id="lZy-3CFGb0z1ACgUJduD-49" style="edgeStyle=orthogonalEdgeStyle;rounded=0;orthogonalLoop=1;jettySize=auto;html=1;exitX=0;exitY=0.5;exitDx=0;exitDy=0;entryX=0.5;entryY=0;entryDx=0;entryDy=0;" parent="1" source="lZy-3CFGb0z1ACgUJduD-44" target="lZy-3CFGb0z1ACgUJduD-46" edge="1">
          <mxGeometry relative="1" as="geometry" />
        </mxCell>
        <mxCell id="lZy-3CFGb0z1ACgUJduD-50" style="edgeStyle=orthogonalEdgeStyle;rounded=0;orthogonalLoop=1;jettySize=auto;html=1;exitX=1;exitY=0.5;exitDx=0;exitDy=0;entryX=0.5;entryY=0;entryDx=0;entryDy=0;" parent="1" source="lZy-3CFGb0z1ACgUJduD-44" target="lZy-3CFGb0z1ACgUJduD-45" edge="1">
          <mxGeometry relative="1" as="geometry" />
        </mxCell>
        <mxCell id="lZy-3CFGb0z1ACgUJduD-44" value="mushroom_path" style="shape=rectangle;whiteSpace=wrap;html=1;rounded=1;fontStyle=1" parent="1" vertex="1">
          <mxGeometry x="-40" y="430" width="160" height="60" as="geometry" />
        </mxCell>
        <mxCell id="lZy-3CFGb0z1ACgUJduD-88" style="edgeStyle=orthogonalEdgeStyle;rounded=0;orthogonalLoop=1;jettySize=auto;html=1;exitX=0.5;exitY=1;exitDx=0;exitDy=0;entryX=1;entryY=0.5;entryDx=0;entryDy=0;" parent="1" source="lZy-3CFGb0z1ACgUJduD-45" target="lZy-3CFGb0z1ACgUJduD-46" edge="1">
          <mxGeometry relative="1" as="geometry" />
        </mxCell>
        <mxCell id="lZy-3CFGb0z1ACgUJduD-45" value="&lt;font style=&quot;color: light-dark(rgb(2, 4, 4), rgb(237, 237, 237)); font-weight: normal;&quot;&gt;new_character&lt;/font&gt;" style="shape=rectangle;whiteSpace=wrap;html=1;rounded=1;fontStyle=1;fillColor=#ffff88;strokeColor=#36393d;" parent="1" vertex="1">
          <mxGeometry x="120" y="530" width="160" height="60" as="geometry" />
        </mxCell>
        <mxCell id="lZy-3CFGb0z1ACgUJduD-52" style="edgeStyle=orthogonalEdgeStyle;rounded=0;orthogonalLoop=1;jettySize=auto;html=1;exitX=0.5;exitY=1;exitDx=0;exitDy=0;entryX=0.5;entryY=0;entryDx=0;entryDy=0;" parent="1" source="lZy-3CFGb0z1ACgUJduD-46" target="lZy-3CFGb0z1ACgUJduD-51" edge="1">
          <mxGeometry relative="1" as="geometry" />
        </mxCell>
        <mxCell id="lZy-3CFGb0z1ACgUJduD-46" value="underground_stream" style="shape=rectangle;whiteSpace=wrap;html=1;rounded=1;fontStyle=1" parent="1" vertex="1">
          <mxGeometry x="-140" y="530" width="160" height="60" as="geometry" />
        </mxCell>
        <mxCell id="lZy-3CFGb0z1ACgUJduD-53" style="edgeStyle=orthogonalEdgeStyle;rounded=0;orthogonalLoop=1;jettySize=auto;html=1;exitX=0.5;exitY=1;exitDx=0;exitDy=0;entryX=0.5;entryY=0;entryDx=0;entryDy=0;" parent="1" source="lZy-3CFGb0z1ACgUJduD-51" target="lZy-3CFGb0z1ACgUJduD-7" edge="1">
          <mxGeometry relative="1" as="geometry" />
        </mxCell>
        <mxCell id="lZy-3CFGb0z1ACgUJduD-51" value="bat_librarian" style="shape=rectangle;whiteSpace=wrap;html=1;rounded=1;fontStyle=1" parent="1" vertex="1">
          <mxGeometry x="-140" y="610" width="160" height="60" as="geometry" />
        </mxCell>
        <mxCell id="lZy-3CFGb0z1ACgUJduD-56" style="edgeStyle=orthogonalEdgeStyle;rounded=0;orthogonalLoop=1;jettySize=auto;html=1;exitX=0.5;exitY=1;exitDx=0;exitDy=0;entryX=0.5;entryY=0;entryDx=0;entryDy=0;" parent="1" source="lZy-3CFGb0z1ACgUJduD-54" target="lZy-3CFGb0z1ACgUJduD-8" edge="1">
          <mxGeometry relative="1" as="geometry" />
        </mxCell>
        <mxCell id="lZy-3CFGb0z1ACgUJduD-54" value="bat_wrong_1" style="shape=rectangle;whiteSpace=wrap;html=1;rounded=1;fontStyle=1" parent="1" vertex="1">
          <mxGeometry x="-240" y="790" width="160" height="60" as="geometry" />
        </mxCell>
        <mxCell id="lZy-3CFGb0z1ACgUJduD-67" style="edgeStyle=orthogonalEdgeStyle;rounded=0;orthogonalLoop=1;jettySize=auto;html=1;exitX=0.5;exitY=1;exitDx=0;exitDy=0;entryX=0.5;entryY=0;entryDx=0;entryDy=0;" parent="1" source="lZy-3CFGb0z1ACgUJduD-55" target="lZy-3CFGb0z1ACgUJduD-66" edge="1">
          <mxGeometry relative="1" as="geometry" />
        </mxCell>
        <mxCell id="lZy-3CFGb0z1ACgUJduD-55" value="bat_correct&lt;div&gt;&lt;br&gt;&lt;/div&gt;&lt;div&gt;&lt;span style=&quot;font-weight: normal;&quot;&gt;Token: Insight Stone&lt;/span&gt;&lt;/div&gt;" style="shape=rectangle;whiteSpace=wrap;html=1;rounded=1;fontStyle=1" parent="1" vertex="1">
          <mxGeometry x="-440" y="970" width="160" height="60" as="geometry" />
        </mxCell>
        <mxCell id="lZy-3CFGb0z1ACgUJduD-91" style="edgeStyle=orthogonalEdgeStyle;rounded=0;orthogonalLoop=1;jettySize=auto;html=1;exitX=0.5;exitY=1;exitDx=0;exitDy=0;entryX=0.75;entryY=0;entryDx=0;entryDy=0;" parent="1" source="lZy-3CFGb0z1ACgUJduD-62" target="lZy-3CFGb0z1ACgUJduD-66" edge="1">
          <mxGeometry relative="1" as="geometry" />
        </mxCell>
        <mxCell id="lZy-3CFGb0z1ACgUJduD-62" value="bat_wrong_2&lt;div&gt;&lt;br&gt;&lt;/div&gt;&lt;div&gt;&lt;span style=&quot;font-weight: normal;&quot;&gt;Item: Scoll of Echoing Answers&lt;/span&gt;&lt;/div&gt;" style="shape=rectangle;whiteSpace=wrap;html=1;rounded=1;fontStyle=1" parent="1" vertex="1">
          <mxGeometry x="-240" y="970" width="160" height="60" as="geometry" />
        </mxCell>
        <mxCell id="lZy-3CFGb0z1ACgUJduD-70" style="edgeStyle=orthogonalEdgeStyle;rounded=0;orthogonalLoop=1;jettySize=auto;html=1;exitX=0;exitY=0.5;exitDx=0;exitDy=0;entryX=0.5;entryY=0;entryDx=0;entryDy=0;" parent="1" source="lZy-3CFGb0z1ACgUJduD-66" target="lZy-3CFGb0z1ACgUJduD-69" edge="1">
          <mxGeometry relative="1" as="geometry" />
        </mxCell>
        <mxCell id="lZy-3CFGb0z1ACgUJduD-84" style="edgeStyle=orthogonalEdgeStyle;rounded=0;orthogonalLoop=1;jettySize=auto;html=1;exitX=1;exitY=0.5;exitDx=0;exitDy=0;entryX=0.5;entryY=0;entryDx=0;entryDy=0;" parent="1" source="lZy-3CFGb0z1ACgUJduD-66" target="lZy-3CFGb0z1ACgUJduD-83" edge="1">
          <mxGeometry relative="1" as="geometry" />
        </mxCell>
        <mxCell id="lZy-3CFGb0z1ACgUJduD-66" value="tunnel_wander" style="shape=rectangle;whiteSpace=wrap;html=1;rounded=1;fontStyle=1" parent="1" vertex="1">
          <mxGeometry x="-440" y="1070" width="160" height="60" as="geometry" />
        </mxCell>
        <mxCell id="lZy-3CFGb0z1ACgUJduD-89" style="edgeStyle=orthogonalEdgeStyle;rounded=0;orthogonalLoop=1;jettySize=auto;html=1;exitX=0.5;exitY=1;exitDx=0;exitDy=0;entryX=0.25;entryY=0;entryDx=0;entryDy=0;" parent="1" source="lZy-3CFGb0z1ACgUJduD-69" target="lZy-3CFGb0z1ACgUJduD-10" edge="1">
          <mxGeometry relative="1" as="geometry" />
        </mxCell>
        <mxCell id="lZy-3CFGb0z1ACgUJduD-69" value="wizard_rescue" style="shape=rectangle;whiteSpace=wrap;html=1;rounded=1;fontStyle=1" parent="1" vertex="1">
          <mxGeometry x="-560" y="1170" width="160" height="60" as="geometry" />
        </mxCell>
        <mxCell id="lZy-3CFGb0z1ACgUJduD-73" style="edgeStyle=orthogonalEdgeStyle;rounded=0;orthogonalLoop=1;jettySize=auto;html=1;exitX=1;exitY=0.5;exitDx=0;exitDy=0;entryX=0.5;entryY=0;entryDx=0;entryDy=0;" parent="1" source="lZy-3CFGb0z1ACgUJduD-12" target="lZy-3CFGb0z1ACgUJduD-17" edge="1">
          <mxGeometry relative="1" as="geometry" />
        </mxCell>
        <mxCell id="lZy-3CFGb0z1ACgUJduD-74" value="fight_bandits&lt;div&gt;&lt;br&gt;&lt;/div&gt;&lt;div&gt;&lt;span style=&quot;font-weight: normal;&quot;&gt;1, 2, 3 = win&lt;/span&gt;&lt;/div&gt;&lt;div&gt;&lt;span style=&quot;font-weight: normal;&quot;&gt;4, 5, 6 = injured&lt;/span&gt;&lt;/div&gt;" style="shape=rectangle;whiteSpace=wrap;html=1;rounded=1;fontStyle=1" parent="1" vertex="1">
          <mxGeometry x="425" y="460" width="160" height="60" as="geometry" />
        </mxCell>
        <mxCell id="lZy-3CFGb0z1ACgUJduD-75" value="flee_bandits" style="shape=rectangle;whiteSpace=wrap;html=1;rounded=1;fontStyle=1" parent="1" vertex="1">
          <mxGeometry x="770" y="460" width="160" height="60" as="geometry" />
        </mxCell>
        <mxCell id="lZy-3CFGb0z1ACgUJduD-80" value="socialize_tavern" style="shape=rectangle;whiteSpace=wrap;html=1;rounded=1;fontStyle=1" parent="1" vertex="1">
          <mxGeometry x="1240" y="330" width="160" height="60" as="geometry" />
        </mxCell>
        <mxCell id="lZy-3CFGb0z1ACgUJduD-90" style="edgeStyle=orthogonalEdgeStyle;rounded=0;orthogonalLoop=1;jettySize=auto;html=1;exitX=0.5;exitY=1;exitDx=0;exitDy=0;entryX=0.75;entryY=0;entryDx=0;entryDy=0;" parent="1" source="lZy-3CFGb0z1ACgUJduD-83" target="lZy-3CFGb0z1ACgUJduD-10" edge="1">
          <mxGeometry relative="1" as="geometry" />
        </mxCell>
        <mxCell id="lZy-3CFGb0z1ACgUJduD-83" value="meet_wizard" style="shape=rectangle;whiteSpace=wrap;html=1;rounded=1;fontStyle=1" parent="1" vertex="1">
          <mxGeometry x="-320" y="1170" width="160" height="60" as="geometry" />
        </mxCell>
        <mxCell id="lZy-3CFGb0z1ACgUJduD-95" style="edgeStyle=orthogonalEdgeStyle;rounded=0;orthogonalLoop=1;jettySize=auto;html=1;exitX=0.5;exitY=1;exitDx=0;exitDy=0;entryX=1;entryY=0.5;entryDx=0;entryDy=0;" parent="1" source="lZy-3CFGb0z1ACgUJduD-93" target="lZy-3CFGb0z1ACgUJduD-51" edge="1">
          <mxGeometry relative="1" as="geometry">
            <Array as="points">
              <mxPoint x="280" y="470" />
              <mxPoint x="330" y="470" />
              <mxPoint x="330" y="640" />
            </Array>
          </mxGeometry>
        </mxCell>
        <mxCell id="lZy-3CFGb0z1ACgUJduD-93" value="&lt;font style=&quot;color: light-dark(rgb(2, 4, 4), rgb(237, 237, 237)); font-weight: normal;&quot;&gt;spider&lt;/font&gt;" style="shape=rectangle;whiteSpace=wrap;html=1;rounded=1;fontStyle=1;fillColor=#ffff88;strokeColor=#36393d;" parent="1" vertex="1">
          <mxGeometry x="200" y="350" width="160" height="60" as="geometry" />
        </mxCell>
      </root>
    </mxGraphModel>
  </diagram>
</mxfile>
